<?xml version="1.0" standalone="no"?>
<!DOCTYPE svg PUBLIC "-//W3C//DTD SVG 20010904//EN"
 "http://www.w3.org/TR/2001/REC-SVG-20010904/DTD/svg10.dtd">
<svg version="1.0" xmlns="http://www.w3.org/2000/svg"
 width="700.000000pt" height="700.000000pt" viewBox="0 0 700.000000 700.000000"
 preserveAspectRatio="xMidYMid meet">
<metadata>
Created by potrace 1.14, written by Peter Selinger 2001-2017
</metadata>
<g transform="translate(0.000000,700.000000) scale(0.100000,-0.100000)"
fill="#000000" stroke="none">
<path d="M3477 6854 c-1 -1 -15 -4 -32 -7 -24 -4 -381 -108 -824 -239 -18 -5
-41 -11 -50 -13 -9 -2 -45 -13 -81 -24 -112 -33 -414 -122 -430 -126 -8 -1
-148 -42 -310 -89 -304 -90 -455 -134 -790 -231 -107 -32 -214 -68 -237 -81
-45 -26 -89 -77 -119 -139 -18 -39 -19 -74 -19 -940 0 -935 5 -1088 35 -1285
5 -36 12 -85 15 -110 3 -25 8 -52 10 -60 2 -8 7 -30 10 -48 41 -244 148 -596
262 -862 35 -84 179 -369 214 -427 22 -35 39 -66 39 -69 0 -10 151 -236 223
-334 60 -81 145 -186 247 -304 38 -44 238 -245 300 -301 386 -350 830 -619
1340 -812 191 -73 228 -75 376 -24 345 121 669 286 978 498 60 42 116 81 125
88 9 8 57 46 106 85 461 367 848 845 1115 1380 32 63 67 138 80 165 12 28 27
64 35 80 82 186 211 606 240 785 3 19 12 71 20 115 22 120 25 139 40 270 15
136 19 335 19 1155 l1 915 -28 55 c-51 99 -91 128 -235 172 -129 39 -252 75
-1327 388 -110 32 -292 85 -405 118 -113 33 -324 95 -470 137 -146 42 -285 83
-310 92 -40 13 -156 33 -163 27z"/>
</g>
</svg>
